<?xml version="1.0" encoding="UTF-8" standalone="no"?>
<!-- Created with Inkscape (http://www.inkscape.org/) -->
<!-- ClipArt by Arvin61r58 (http://openclipart.org/user-detail/Arvin61r58) -->
<!-- ClipArt by Firkin (https://openclipart.org/user-detail/Firkin) -->
<svg
   xmlns:dc="http://purl.org/dc/elements/1.1/"
   xmlns:cc="http://creativecommons.org/ns#"
   xmlns:rdf="http://www.w3.org/1999/02/22-rdf-syntax-ns#"
   xmlns:svg="http://www.w3.org/2000/svg"
   xmlns="http://www.w3.org/2000/svg"
   xmlns:xlink="http://www.w3.org/1999/xlink"
   version="1.1"
   id="svg4232"
   viewBox="0 0 765 990"
   height="990"
   width="765">
  <title
     id="title4917">Greek Key Border</title>
  <defs
     id="defs4234" />
  <metadata
     id="metadata4237">
    <rdf:RDF>
      <cc:Work
         rdf:about="">
        <dc:format>image/svg+xml</dc:format>
        <dc:type
           rdf:resource="http://purl.org/dc/dcmitype/StillImage" />
        <dc:title>Greek Key Border</dc:title>
        <dc:creator>
          <cc:Agent>
            <dc:title>Arvin61r58</dc:title>
          </cc:Agent>
        </dc:creator>
        <dc:publisher>
          <cc:Agent>
            <dc:title>Openclipart.org</dc:title>
          </cc:Agent>
        </dc:publisher>
        <dc:identifier>https://openclipart.org/</dc:identifier>
        <dc:source>https://openclipart.org/user-detail/Arvin61r58</dc:source>
        <dc:contributor>
          <cc:Agent>
            <dc:title>Firkin
https://openclipart.org/detail/255890/greek-key-pattern</dc:title>
          </cc:Agent>
        </dc:contributor>
        <dc:subject>
          <rdf:Bag>
            <rdf:li>border</rdf:li>
            <rdf:li>frame</rdf:li>
            <rdf:li>pattern</rdf:li>
            <rdf:li>Greek key</rdf:li>
            <rdf:li>Greek</rdf:li>
            <rdf:li>Greece</rdf:li>
          </rdf:Bag>
        </dc:subject>
        <cc:license
           rdf:resource="http://creativecommons.org/publicdomain/zero/1.0/" />
      </cc:Work>
      <cc:License
         rdf:about="http://creativecommons.org/publicdomain/zero/1.0/">
        <cc:permits
           rdf:resource="http://creativecommons.org/ns#Reproduction" />
        <cc:permits
           rdf:resource="http://creativecommons.org/ns#Distribution" />
        <cc:permits
           rdf:resource="http://creativecommons.org/ns#DerivativeWorks" />
      </cc:License>
    </rdf:RDF>
  </metadata>
  <g
     id="layer1"
     transform="translate(0,-62.362205)">
    <g
       transform="matrix(1.0009304,0,0,1.0019178,-5.3843181,10.877805)"
       id="g4888">
      <use
         height="100%"
         width="100%"
         transform="matrix(-1,0,0,-1,775.98335,1091.9546)"
         id="use4846"
         xlink:href="#g4841"
         y="0"
         x="0" />
      <g
         id="g4878"
         transform="translate(-0.935818,-1.0778825)">
        <g
           id="g4841"
           transform="translate(40.326015,-35.294315)">
          <path
             style="fill:#000000"
             d="m -11.531784,110.21496 0,1.60976 0,1.60975 0,0.53659 0,1.07317 0,0.53659 0,1.07317 0,0.53658 0,1.07317 0,0.53659 0,1.07317 0,0.53659 0,1.07316 0,0.53658 0,1.07317 0,0.53659 0,1.07317 0,0.53659 0,1.07317 0,0.53658 0,1.07318 0,0.53658 0,1.07317 0,0.53659 0,1.07317 0,0.53658 0,1.07318 0,0.53658 0,1.07317 0,0.53659 0,1.07317 0,0.53658 0,1.07318 0,0.53658 0,1.07317 0,0.53659 0,1.07317 0,0.53659 0,1.07317 0,0.53658 0,1.07316 0,0.53659 0,1.07317 0,0.53659 0,1.07317 0,0.53658 0,1.07317 0,0.53659 0,1.07317 0,0.53659 0,1.60975 0,1.60976 1.07317,0 1.6097632,0 0.53658,0 1.07317,0 0.5365898,0 1.07317,0 0.53659,0 1.07317,0 0.53658,0 1.07318,0 0.53658,0 1.07317,0 0.53658,0 1.07317,0 0.53658,0 1.07318,0 0.53658,0 1.07317,0 0.53659,0 1.07317,0 0.53659,0 1.07317,0 0.53658,0 1.07317,0 0.53659,0 1.07317,0 0.53659,0 1.07317,0 0.53658,0 1.07317,0 0.53659,0 1.07317,0 0.53659,0 1.07317,0 0.53658,0 1.07317,0 0.53659,0 1.07317,0 0.53659,0 1.07316,0 0.53658,0 1.07317,0 0.53659,0 1.07317,0 0.53659,0 1.07317,0 0.53658,0 1.07318,0 0.53658,0 1.07317,0 0.53659,0 0.53658,0 1.60976,0 0,-1.60976 0,-0.53658 0,-0.53659 0,-1.07317 0,-0.53658 0,-1.07318 0,-0.53658 0,-1.07317 0,-0.53659 0,-1.07317 0,-0.53659 0,-1.07317 0,-0.53658 0,-1.07316 0,-0.53659 0,-1.07317 0,-0.53659 0,-1.07317 0,-0.53658 0,-1.07317 0,-0.53659 0,-1.07317 0,-0.53659 0,-1.07317 0,-0.53658 0,-1.07317 0,-0.53659 0,-1.07317 0,-0.53659 0,-1.07317 0,-0.53658 0,-1.07317 0,-0.53659 0,-1.07317 0,-0.53659 0,-1.07317 0,-0.53658 0,-1.07318 0,-0.53658 0,-1.07317 0,-0.53658 0,-1.07317 0,-0.53658 0,-1.07318 0,-0.53658 0,-1.07317 0,-0.53659 0,-1.07317 0,-0.53659 0,-1.07317 0,-0.53658 0,-1.07317 0,-0.53659 0,-1.07317 -1.60976,0 -1.60975,0 -0.53659,0 -1.07317,0 -0.53659,0 -1.07317,0 -0.53658,0 -1.07317,0 -0.53659,0 -1.07317,0 -0.53659,0 -1.07316,0 -0.53658,0 -1.07317,0 -0.53659,0 -1.07317,0 -0.53659,0 -1.07317,0 -0.53658,0 -1.07318,0 -0.53658,0 -1.07317,0 -0.53659,0 -1.07317,0 -0.53658,0 -1.07318,0 -0.53658,0 -1.07317,0 -0.53659,0 -1.07317,0 -0.53658,0 -1.07318,0 -0.53658,0 -1.07317,0 -0.53659,0 -1.07317,0 -0.53659,0 -1.07317,0 -0.53658,0 -1.07316,0 -0.53659,0 -1.07317,0 -0.53659,0 -1.07317,0 -0.53658,0 -1.07317,0 -0.53659,0 -1.0731698,0 -0.53659,0 -1.609753,0 -1.6097602,0 z m 11.268293,3.21951 0.53658,0 1.07317,0 0.53659,0 1.07317,0 0.53659,0 1.07317,0 0.53658,0 1.07318,0 0.53658,0 1.07317,0 0.53659,0 0.0503,0 -7.95027,8.03621 c -4.38845,4.43477 -8.3190898,8.06135 -8.7341798,8.06135 l 0,-1.07317 0,-0.53658 0,-1.07318 0,-0.53658 0,-1.07317 0,-0.53659 0,-1.07317 0,-0.53659 0,-1.07317 0,-0.53658 8.0487798,0 0,-8.04878 z m 12.82776,0 0.0503,0 0.53659,0 1.07317,0 0.53658,0 1.07318,0 0.53658,0 1.07317,0 0.53659,0 1.07317,0 0.53658,0 1.07317,0 0.53658,0 0,8.04878 8.04879,0 0,1.07317 0,0.53658 0,1.07318 0,0.53658 0,1.07317 0,0.53659 0,1.07317 0,0.53659 0,1.07317 0,0.53658 c -0.41509,0 -4.34573,-3.62658 -8.73418,-8.06135 l -7.95027,-8.03621 z m -7.46191,5.36586 5.36586,0 5.36586,0 0,4.02439 0,4.02438 4.02438,0 4.02439,0 0,5.36586 0,5.36586 -4.02439,0 -4.02438,0 0,4.02438 0,4.02439 -5.36586,0 -5.36586,0 0,-4.02439 0,-4.02438 -4.02438,0 -4.02439,0 0,-5.36586 0,-5.36586 4.02439,0 4.02438,0 0,-4.02438 0,-4.02439 z m 1.34147,9.39024 0,4.02439 0,4.02439 4.02439,0 4.02439,0 0,-4.02439 0,-4.02439 -4.02439,0 -4.02439,0 z m -14.7560998,6.06383 8.3568998,8.3569 8.35481,8.3569 -0.0273,0.0273 -0.58689,0 -0.53658,0 -1.07317,0 -0.53659,0 -1.07317,0 -0.53659,0 -1.07317,0 -0.53658,0 -1.07318,0 -0.53658,0 -1.07316,0 0,-8.04879 -8.0487898,0 0,-0.53658 0,-1.07316 0,-0.53659 0,-1.07317 0,-0.53659 0,-1.07317 0,-0.53658 0,-1.07318 0,-0.53658 0,-1.07317 0,-0.53659 0,-0.1069 z m 37.5609798,0 0,0.1069 0,1.07317 0,0.53659 0,1.07317 0,0.53659 0,1.07317 0,0.53658 0,1.07317 0,0.53659 0,1.07317 0,0.53659 0,0.53658 -8.04878,0 0,8.04878 -0.53658,0 -0.53659,0 -1.07317,0 -0.53659,0 -1.07317,0 -0.53658,0 -1.07317,0 -0.53659,0 -1.07317,0 -0.53659,0 -1.07317,0 -0.0503,0 -0.0273,-0.0273 8.35479,-8.3569 8.3569,-8.3569 z"
             id="path4166" />
          <path
             style="fill:#000000;fill-opacity:1;fill-rule:evenodd;stroke:none;stroke-width:1px;stroke-linecap:butt;stroke-linejoin:miter;stroke-opacity:1"
             d="m 32.503319,114.21498 c 0,0 0,23.99996 0,23.99996 0,0 -0.0351,0 -0.0351,0 0,0 0,4.00001 0,4.00001 0,0 3.98088,0 3.98088,0 0,0 0,-23.99997 0,-23.99997 0,0 51.295571,0 51.295571,0 0,0 0,12 0,12 0,0 -3.945816,0 -3.945816,0 0,0 0,-8 0,-8 0,0 -11.837435,0 -11.837435,0 0,0 0,19.99997 0,19.99997 0,0 23.639801,0 23.639801,0 0,0 0,-4.00001 0,-4.00001 0,0 -19.693986,0 -19.693986,0 0,0 0,-11.99996 0,-11.99996 0,0 3.94581,0 3.94581,0 0,0 0,8 0,8 0,0 11.837436,0 11.837436,0 0,0 0,-20 0,-20 0,0 -59.187191,0 -59.187191,0 0,0 5e-5,0 5e-5,0 m 63.133051,0 c 0,0 0,23.99996 0,23.99996 0,0 -0.0351,0 -0.0351,0 0,0 0,4.00001 0,4.00001 0,0 3.98089,0 3.98089,0 0,0 0,-23.99997 0,-23.99997 0,0 51.29556,0 51.29556,0 0,0 0,12 0,12 0,0 -3.94581,0 -3.94581,0 0,0 0,-8 0,-8 0,0 -11.83744,0 -11.83744,0 0,0 0,19.99997 0,19.99997 0,0 23.63981,0 23.63981,0 0,0 0,-4.00001 0,-4.00001 0,0 -19.694,0 -19.694,0 0,0 0,-11.99996 0,-11.99996 0,0 3.94582,0 3.94582,0 0,0 0,8 0,8 0,0 11.83743,0 11.83743,0 0,0 0,-20 0,-20 0,0 -59.18719,0 -59.18719,0 0,0 5e-5,0 5e-5,0 m 63.13306,0 c 0,0 0,23.99996 0,23.99996 0,0 -0.0351,0 -0.0351,0 0,0 0,4.00001 0,4.00001 0,0 3.98088,0 3.98088,0 0,0 0,-23.99997 0,-23.99997 0,0 51.29557,0 51.29557,0 0,0 0,12 0,12 0,0 -3.94582,0 -3.94582,0 0,0 0,-8 0,-8 0,0 -11.83744,0 -11.83744,0 0,0 0,19.99997 0,19.99997 0,0 23.63981,0 23.63981,0 0,0 0,-4.00001 0,-4.00001 0,0 -19.69399,0 -19.69399,0 0,0 0,-11.99996 0,-11.99996 0,0 3.94581,0 3.94581,0 0,0 0,8 0,8 0,0 11.83744,0 11.83744,0 0,0 0,-20 0,-20 0,0 -59.18719,0 -59.18719,0 0,0 5e-5,0 5e-5,0 m 63.13305,0 c 0,0 0,23.99996 0,23.99996 0,0 -0.0351,0 -0.0351,0 0,0 0,4.00001 0,4.00001 0,0 3.98088,0 3.98088,0 0,0 0,-23.99997 0,-23.99997 0,0 51.29557,0 51.29557,0 0,0 0,12 0,12 0,0 -3.94581,0 -3.94581,0 0,0 0,-8 0,-8 0,0 -11.83744,0 -11.83744,0 0,0 0,19.99997 0,19.99997 0,0 23.63981,0 23.63981,0 0,0 0,-4.00001 0,-4.00001 0,0 -19.694,0 -19.694,0 0,0 0,-11.99996 0,-11.99996 0,0 3.94581,0 3.94581,0 0,0 0,8 0,8 0,0 11.83744,0 11.83744,0 0,0 0,-20 0,-20 0,0 -59.18719,0 -59.18719,0 0,0 5e-5,0 5e-5,0 m 63.13305,0 c 0,0 0,23.99996 0,23.99996 0,0 -0.0351,0 -0.0351,0 0,0 0,4.00001 0,4.00001 0,0 3.98088,0 3.98088,0 0,0 0,-23.99997 0,-23.99997 0,0 51.29556,0 51.29556,0 0,0 0,12 0,12 0,0 -3.94581,0 -3.94581,0 0,0 0,-8 0,-8 0,0 -11.83744,0 -11.83744,0 0,0 0,19.99997 0,19.99997 0,0 23.63981,0 23.63981,0 0,0 0,-4.00001 0,-4.00001 0,0 -19.69399,0 -19.69399,0 0,0 0,-11.99996 0,-11.99996 0,0 3.94581,0 3.94581,0 0,0 0,8 0,8 0,0 11.83744,0 11.83744,0 0,0 0,-20 0,-20 0,0 -59.1872,0 -59.1872,0 0,0 5e-5,0 5e-5,0 m 63.13306,0 c 0,0 0,23.99996 0,23.99996 0,0 -0.0351,0 -0.0351,0 0,0 0,4.00001 0,4.00001 0,0 3.98088,0 3.98088,0 0,0 0,-23.99997 0,-23.99997 0,0 51.29557,0 51.29557,0 0,0 0,12 0,12 0,0 -3.94582,0 -3.94582,0 0,0 0,-8 0,-8 0,0 -11.83743,0 -11.83743,0 0,0 0,19.99997 0,19.99997 0,0 23.6398,0 23.6398,0 0,0 0,-4.00001 0,-4.00001 0,0 -19.69399,0 -19.69399,0 0,0 0,-11.99996 0,-11.99996 0,0 3.94581,0 3.94581,0 0,0 0,8 0,8 0,0 11.83744,0 11.83744,0 0,0 0,-20 0,-20 0,0 -59.18719,0 -59.18719,0 0,0 5e-5,0 5e-5,0 m 63.13305,0 c 0,0 0,23.99996 0,23.99996 0,0 -0.0351,0 -0.0351,0 0,0 0,4.00001 0,4.00001 0,0 3.98089,0 3.98089,0 0,0 0,-23.99997 0,-23.99997 0,0 51.29556,0 51.29556,0 0,0 0,12 0,12 0,0 -3.94581,0 -3.94581,0 0,0 0,-8 0,-8 0,0 -11.83744,0 -11.83744,0 0,0 0,19.99997 0,19.99997 0,0 23.63981,0 23.63981,0 0,0 0,-4.00001 0,-4.00001 0,0 -19.694,0 -19.694,0 0,0 0,-11.99996 0,-11.99996 0,0 3.94582,0 3.94582,0 0,0 0,8 0,8 0,0 11.83743,0 11.83743,0 0,0 0,-20 0,-20 0,0 -59.18719,0 -59.18719,0 0,0 5e-5,0 5e-5,0 m 63.13306,0 c 0,0 0,23.99996 0,23.99996 0,0 -0.0351,0 -0.0351,0 0,0 0,4.00001 0,4.00001 0,0 3.98088,0 3.98088,0 0,0 0,-23.99997 0,-23.99997 0,0 51.29557,0 51.29557,0 0,0 0,12 0,12 0,0 -3.94582,0 -3.94582,0 0,0 0,-8 0,-8 0,0 -11.83744,0 -11.83744,0 0,0 0,19.99997 0,19.99997 0,0 23.63981,0 23.63981,0 0,0 0,-4.00001 0,-4.00001 0,0 -19.69399,0 -19.69399,0 0,0 0,-11.99996 0,-11.99996 0,0 3.94581,0 3.94581,0 0,0 0,8 0,8 0,0 11.83744,0 11.83744,0 0,0 0,-20 0,-20 0,0 -59.18719,0 -59.18719,0 0,0 5e-5,0 5e-5,0 m 63.13305,0 c 0,0 0,23.99996 0,23.99996 0,0 -0.0351,0 -0.0351,0 0,0 0,4.00001 0,4.00001 0,0 3.98088,0 3.98088,0 0,0 0,-23.99997 0,-23.99997 0,0 51.29557,0 51.29557,0 0,0 0,12 0,12 0,0 -3.94581,0 -3.94581,0 0,0 0,-8 0,-8 0,0 -11.83744,0 -11.83744,0 0,0 0,19.99997 0,19.99997 0,0 23.63981,0 23.63981,0 0,0 0,-4.00001 0,-4.00001 0,0 -19.694,0 -19.694,0 0,0 0,-11.99996 0,-11.99996 0,0 3.94581,0 3.94581,0 0,0 0,8 0,8 0,0 11.83744,0 11.83744,0 0,0 0,-20 0,-20 0,0 -59.18719,0 -59.18719,0 0,0 5e-5,0 5e-5,0 m 63.13305,0 c 0,0 0,23.99996 0,23.99996 0,0 -0.0351,0 -0.0351,0 0,0 0,4.00001 0,4.00001 0,0 3.98088,0 3.98088,0 0,0 0,-23.99997 0,-23.99997 0,0 51.29556,0 51.29556,0 0,0 0,12 0,12 0,0 -3.94581,0 -3.94581,0 0,0 0,-8 0,-8 0,0 -11.83744,0 -11.83744,0 0,0 0,19.99997 0,19.99997 0,0 23.63981,0 23.63981,0 0,0 0,-4.00001 0,-4.00001 0,0 -19.69399,0 -19.69399,0 0,0 0,-11.99996 0,-11.99996 0,0 3.94581,0 3.94581,0 0,0 0,8 0,8 0,0 11.83744,0 11.83744,0 0,0 0,-20 0,-20 0,0 -59.1872,0 -59.1872,0 0,0 5e-5,0 5e-5,0 m -560.305861,8 c 0,0 0,23.99997 0,23.99997 0,0 -7.92669,0 -7.92669,0 0,0 0,4 0,4 0,0 11.87251,0 11.87251,0 0,0 0,-23.99997 0,-23.99997 0,0 19.72906,0 19.72906,0 0,0 0,11.99996 0,11.99996 0,0 -3.94581,0 -3.94581,0 0,0 0,-7.99996 0,-7.99996 0,0 -11.83744,0 -11.83744,0 0,0 0,19.99997 0,19.99997 0,0 47.314681,0 47.314681,0 0,0 0,-4 0,-4 0,0 -43.368871,0 -43.368871,0 0,0 0,-11.99997 0,-11.99997 0,0 3.94581,0 3.94581,0 0,0 0,7.99997 0,7.99997 0,0 11.83744,0 11.83744,0 0,0 0,-19.99997 0,-19.99997 0,0 -27.62069,0 -27.62069,0 0,0 0,0 0,0 m 63.133061,0 c 0,0 0,23.99997 0,23.99997 0,0 -7.9267,0 -7.9267,0 0,0 0,4 0,4 0,0 11.87251,0 11.87251,0 0,0 0,-23.99997 0,-23.99997 0,0 19.72906,0 19.72906,0 0,0 0,11.99996 0,11.99996 0,0 -3.94581,0 -3.94581,0 0,0 0,-7.99996 0,-7.99996 0,0 -11.83744,0 -11.83744,0 0,0 0,19.99997 0,19.99997 0,0 47.31469,0 47.31469,0 0,0 0,-4 0,-4 0,0 -43.36887,0 -43.36887,0 0,0 0,-11.99997 0,-11.99997 0,0 3.94581,0 3.94581,0 0,0 0,7.99997 0,7.99997 0,0 11.83744,0 11.83744,0 0,0 0,-19.99997 0,-19.99997 0,0 -27.62069,0 -27.62069,0 0,0 0,0 0,0 m 63.13305,0 c 0,0 0,23.99997 0,23.99997 0,0 -7.92669,0 -7.92669,0 0,0 0,4 0,4 0,0 11.8725,0 11.8725,0 0,0 0,-23.99997 0,-23.99997 0,0 19.72907,0 19.72907,0 0,0 0,11.99996 0,11.99996 0,0 -3.94581,0 -3.94581,0 0,0 0,-7.99996 0,-7.99996 0,0 -11.83744,0 -11.83744,0 0,0 0,19.99997 0,19.99997 0,0 47.31468,0 47.31468,0 0,0 0,-4 0,-4 0,0 -43.36887,0 -43.36887,0 0,0 0,-11.99997 0,-11.99997 0,0 3.94581,0 3.94581,0 0,0 0,7.99997 0,7.99997 0,0 11.83744,0 11.83744,0 0,0 0,-19.99997 0,-19.99997 0,0 -27.62069,0 -27.62069,0 0,0 0,0 0,0 m 63.13306,0 c 0,0 0,23.99997 0,23.99997 0,0 -7.9267,0 -7.9267,0 0,0 0,4 0,4 0,0 11.87251,0 11.87251,0 0,0 0,-23.99997 0,-23.99997 0,0 19.72906,0 19.72906,0 0,0 0,11.99996 0,11.99996 0,0 -3.94581,0 -3.94581,0 0,0 0,-7.99996 0,-7.99996 0,0 -11.83744,0 -11.83744,0 0,0 0,19.99997 0,19.99997 0,0 47.31469,0 47.31469,0 0,0 0,-4 0,-4 0,0 -43.36888,0 -43.36888,0 0,0 0,-11.99997 0,-11.99997 0,0 3.94582,0 3.94582,0 0,0 0,7.99997 0,7.99997 0,0 11.83743,0 11.83743,0 0,0 0,-19.99997 0,-19.99997 0,0 -27.62068,0 -27.62068,0 0,0 0,0 0,0 m 63.13305,0 c 0,0 0,23.99997 0,23.99997 0,0 -7.92669,0 -7.92669,0 0,0 0,4 0,4 0,0 11.8725,0 11.8725,0 0,0 0,-23.99997 0,-23.99997 0,0 19.72907,0 19.72907,0 0,0 0,11.99996 0,11.99996 0,0 -3.94582,0 -3.94582,0 0,0 0,-7.99996 0,-7.99996 0,0 -11.83744,0 -11.83744,0 0,0 0,19.99997 0,19.99997 0,0 47.31469,0 47.31469,0 0,0 0,-4 0,-4 0,0 -43.36887,0 -43.36887,0 0,0 0,-11.99997 0,-11.99997 0,0 3.94581,0 3.94581,0 0,0 0,7.99997 0,7.99997 0,0 11.83744,0 11.83744,0 0,0 0,-19.99997 0,-19.99997 0,0 -27.62069,0 -27.62069,0 0,0 0,0 0,0 m 63.13305,0 c 0,0 0,23.99997 0,23.99997 0,0 -7.92669,0 -7.92669,0 0,0 0,4 0,4 0,0 11.87251,0 11.87251,0 0,0 0,-23.99997 0,-23.99997 0,0 19.72906,0 19.72906,0 0,0 0,11.99996 0,11.99996 0,0 -3.94581,0 -3.94581,0 0,0 0,-7.99996 0,-7.99996 0,0 -11.83744,0 -11.83744,0 0,0 0,19.99997 0,19.99997 0,0 47.31468,0 47.31468,0 0,0 0,-4 0,-4 0,0 -43.36887,0 -43.36887,0 0,0 0,-11.99997 0,-11.99997 0,0 3.94581,0 3.94581,0 0,0 0,7.99997 0,7.99997 0,0 11.83744,0 11.83744,0 0,0 0,-19.99997 0,-19.99997 0,0 -27.62069,0 -27.62069,0 0,0 0,0 0,0 m 63.13306,0 c 0,0 0,23.99997 0,23.99997 0,0 -7.9267,0 -7.9267,0 0,0 0,4 0,4 0,0 11.87251,0 11.87251,0 0,0 0,-23.99997 0,-23.99997 0,0 19.72906,0 19.72906,0 0,0 0,11.99996 0,11.99996 0,0 -3.94581,0 -3.94581,0 0,0 0,-7.99996 0,-7.99996 0,0 -11.83744,0 -11.83744,0 0,0 0,19.99997 0,19.99997 0,0 47.31469,0 47.31469,0 0,0 0,-4 0,-4 0,0 -43.36887,0 -43.36887,0 0,0 0,-11.99997 0,-11.99997 0,0 3.94581,0 3.94581,0 0,0 0,7.99997 0,7.99997 0,0 11.83744,0 11.83744,0 0,0 0,-19.99997 0,-19.99997 0,0 -27.62069,0 -27.62069,0 0,0 0,0 0,0 m 63.13305,0 c 0,0 0,23.99997 0,23.99997 0,0 -7.92669,0 -7.92669,0 0,0 0,4 0,4 0,0 11.8725,0 11.8725,0 0,0 0,-23.99997 0,-23.99997 0,0 19.72907,0 19.72907,0 0,0 0,11.99996 0,11.99996 0,0 -3.94581,0 -3.94581,0 0,0 0,-7.99996 0,-7.99996 0,0 -11.83744,0 -11.83744,0 0,0 0,19.99997 0,19.99997 0,0 47.31468,0 47.31468,0 0,0 0,-4 0,-4 0,0 -43.36887,0 -43.36887,0 0,0 0,-11.99997 0,-11.99997 0,0 3.94581,0 3.94581,0 0,0 0,7.99997 0,7.99997 0,0 11.83744,0 11.83744,0 0,0 0,-19.99997 0,-19.99997 0,0 -27.62069,0 -27.62069,0 0,0 0,0 0,0 m 63.13306,0 c 0,0 0,23.99997 0,23.99997 0,0 -7.9267,0 -7.9267,0 0,0 0,4 0,4 0,0 11.87251,0 11.87251,0 0,0 0,-23.99997 0,-23.99997 0,0 19.72906,0 19.72906,0 0,0 0,11.99996 0,11.99996 0,0 -3.94581,0 -3.94581,0 0,0 0,-7.99996 0,-7.99996 0,0 -11.83744,0 -11.83744,0 0,0 0,19.99997 0,19.99997 0,0 47.31469,0 47.31469,0 0,0 0,-4 0,-4 0,0 -43.36888,0 -43.36888,0 0,0 0,-11.99997 0,-11.99997 0,0 3.94582,0 3.94582,0 0,0 0,7.99997 0,7.99997 0,0 11.83743,0 11.83743,0 0,0 0,-19.99997 0,-19.99997 0,0 -27.62068,0 -27.62068,0 0,0 0,0 0,0 m 63.13305,0 c 0,0 0,23.99997 0,23.99997 0,0 -7.92669,0 -7.92669,0 0,0 0,4 0,4 0,0 11.8725,0 11.8725,0 0,0 0,-23.99997 0,-23.99997 0,0 19.72907,0 19.72907,0 0,0 0,11.99996 0,11.99996 0,0 -3.94582,0 -3.94582,0 0,0 0,-7.99996 0,-7.99996 0,0 -11.83744,0 -11.83744,0 0,0 0,19.99997 0,19.99997 0,0 47.31469,0 47.31469,0 0,0 0,-4 0,-4 0,0 -43.36887,0 -43.36887,0 0,0 0,-11.99997 0,-11.99997 0,0 3.94581,0 3.94581,0 0,0 0,7.99997 0,7.99997 0,0 11.83744,0 11.83744,0 0,0 0,-19.99997 0,-19.99997 0,0 -27.62069,0 -27.62069,0 0,0 0,0 0,0"
             id="path1968" />
          <path
             id="path4833"
             d="m 663.79892,110.21496 0,1.60976 0,1.60975 0,0.53659 0,1.07317 0,0.53659 0,1.07317 0,0.53658 0,1.07317 0,0.53659 0,1.07317 0,0.53659 0,1.07316 0,0.53658 0,1.07317 0,0.53659 0,1.07317 0,0.53659 0,1.07317 0,0.53658 0,1.07318 0,0.53658 0,1.07317 0,0.53659 0,1.07317 0,0.53658 0,1.07318 0,0.53658 0,1.07317 0,0.53659 0,1.07317 0,0.53658 0,1.07318 0,0.53658 0,1.07317 0,0.53659 0,1.07317 0,0.53659 0,1.07317 0,0.53658 0,1.07316 0,0.53659 0,1.07317 0,0.53659 0,1.07317 0,0.53658 0,1.07317 0,0.53659 0,1.07317 0,0.53659 0,1.60975 0,1.60976 1.07317,0 1.60976,0 0.53658,0 1.07317,0 0.53659,0 1.07317,0 0.53659,0 1.07317,0 0.53658,0 1.07318,0 0.53658,0 1.07317,0 0.53658,0 1.07317,0 0.53658,0 1.07318,0 0.53658,0 1.07317,0 0.53659,0 1.07317,0 0.53659,0 1.07317,0 0.53658,0 1.07317,0 0.53659,0 1.07317,0 0.53659,0 1.07317,0 0.53658,0 1.07317,0 0.53659,0 1.07317,0 0.53659,0 1.07317,0 0.53658,0 1.07317,0 0.53659,0 1.07317,0 0.53659,0 1.07316,0 0.53658,0 1.07317,0 0.53659,0 1.07317,0 0.53659,0 1.07317,0 0.53658,0 1.07318,0 0.53658,0 1.07317,0 0.53659,0 0.53658,0 1.60976,0 0,-1.60976 0,-0.53658 0,-0.53659 0,-1.07317 0,-0.53658 0,-1.07318 0,-0.53658 0,-1.07317 0,-0.53659 0,-1.07317 0,-0.53659 0,-1.07317 0,-0.53658 0,-1.07316 0,-0.53659 0,-1.07317 0,-0.53659 0,-1.07317 0,-0.53658 0,-1.07317 0,-0.53659 0,-1.07317 0,-0.53659 0,-1.07317 0,-0.53658 0,-1.07317 0,-0.53659 0,-1.07317 0,-0.53659 0,-1.07317 0,-0.53658 0,-1.07317 0,-0.53659 0,-1.07317 0,-0.53659 0,-1.07317 0,-0.53658 0,-1.07318 0,-0.53658 0,-1.07317 0,-0.53658 0,-1.07317 0,-0.53658 0,-1.07318 0,-0.53658 0,-1.07317 0,-0.53659 0,-1.07317 0,-0.53659 0,-1.07317 0,-0.53658 0,-1.07317 0,-0.53659 0,-1.07317 -1.60976,0 -1.60975,0 -0.53659,0 -1.07317,0 -0.53659,0 -1.07317,0 -0.53658,0 -1.07317,0 -0.53659,0 -1.07317,0 -0.53659,0 -1.07316,0 -0.53658,0 -1.07317,0 -0.53659,0 -1.07317,0 -0.53659,0 -1.07317,0 -0.53658,0 -1.07318,0 -0.53658,0 -1.07317,0 -0.53659,0 -1.07317,0 -0.53658,0 -1.07318,0 -0.53658,0 -1.07317,0 -0.53659,0 -1.07317,0 -0.53658,0 -1.07318,0 -0.53658,0 -1.07317,0 -0.53659,0 -1.07317,0 -0.53659,0 -1.07317,0 -0.53658,0 -1.07316,0 -0.53659,0 -1.07317,0 -0.53659,0 -1.07317,0 -0.53658,0 -1.07317,0 -0.53659,0 -1.07317,0 -0.53659,0 -1.60975,0 -1.60976,0 z m 11.26829,3.21951 0.53658,0 1.07317,0 0.53659,0 1.07317,0 0.53659,0 1.07317,0 0.53658,0 1.07318,0 0.53658,0 1.07317,0 0.53659,0 0.0503,0 -7.95027,8.03621 c -4.38845,4.43477 -8.31909,8.06135 -8.73418,8.06135 l 0,-1.07317 0,-0.53658 0,-1.07318 0,-0.53658 0,-1.07317 0,-0.53659 0,-1.07317 0,-0.53659 0,-1.07317 0,-0.53658 8.04878,0 0,-8.04878 z m 12.82776,0 0.0503,0 0.53659,0 1.07317,0 0.53658,0 1.07318,0 0.53658,0 1.07317,0 0.53659,0 1.07317,0 0.53658,0 1.07317,0 0.53658,0 0,8.04878 8.04879,0 0,1.07317 0,0.53658 0,1.07318 0,0.53658 0,1.07317 0,0.53659 0,1.07317 0,0.53659 0,1.07317 0,0.53658 c -0.41509,0 -4.34573,-3.62658 -8.73418,-8.06135 l -7.95027,-8.03621 z m -7.46191,5.36586 5.36586,0 5.36586,0 0,4.02439 0,4.02438 4.02438,0 4.02439,0 0,5.36586 0,5.36586 -4.02439,0 -4.02438,0 0,4.02438 0,4.02439 -5.36586,0 -5.36586,0 0,-4.02439 0,-4.02438 -4.02438,0 -4.02439,0 0,-5.36586 0,-5.36586 4.02439,0 4.02438,0 0,-4.02438 0,-4.02439 z m 1.34147,9.39024 0,4.02439 0,4.02439 4.02439,0 4.02439,0 0,-4.02439 0,-4.02439 -4.02439,0 -4.02439,0 z m -14.7561,6.06383 8.3569,8.3569 8.35481,8.3569 -0.0273,0.0273 -0.58689,0 -0.53658,0 -1.07317,0 -0.53659,0 -1.07317,0 -0.53659,0 -1.07317,0 -0.53658,0 -1.07318,0 -0.53658,0 -1.07316,0 0,-8.04879 -8.04879,0 0,-0.53658 0,-1.07316 0,-0.53659 0,-1.07317 0,-0.53659 0,-1.07317 0,-0.53658 0,-1.07318 0,-0.53658 0,-1.07317 0,-0.53659 0,-0.1069 z m 37.56098,0 0,0.1069 0,1.07317 0,0.53659 0,1.07317 0,0.53659 0,1.07317 0,0.53658 0,1.07317 0,0.53659 0,1.07317 0,0.53659 0,0.53658 -8.04878,0 0,8.04878 -0.53658,0 -0.53659,0 -1.07317,0 -0.53659,0 -1.07317,0 -0.53658,0 -1.07317,0 -0.53659,0 -1.07317,0 -0.53659,0 -1.07317,0 -0.0503,0 -0.0273,-0.0273 8.35479,-8.3569 8.3569,-8.3569 z"
             style="fill:#000000" />
        </g>
        <path
           id="path9057"
           d="m 32.477033,119.00047 c 0,0 23.99996,0 23.99996,0 0,0 0,-0.0366 0,-0.0366 0,0 4.00001,0 4.00001,0 0,0 0,4.14782 0,4.14782 0,0 -23.99997,0 -23.99997,0 0,0 0,53.44671 0,53.44671 0,0 12,0 12,0 0,0 0,-4.11129 0,-4.11129 0,0 -8,0 -8,0 0,0 0,-12.33385 0,-12.33385 0,0 19.99997,0 19.99997,0 0,0 0,24.63117 0,24.63117 0,0 -4.00001,0 -4.00001,0 0,0 0,-20.51989 0,-20.51989 0,0 -11.99996,0 -11.99996,0 0,0 0,4.11129 0,4.11129 0,0 8,0 8,0 0,0 0,12.33385 0,12.33385 0,0 -20,0 -20,0 0,0 0,-61.66927 0,-61.66927 0,0 0,5e-5 0,5e-5 m 0,65.78061 c 0,0 23.99996,0 23.99996,0 0,0 0,-0.0366 0,-0.0366 0,0 4.00001,0 4.00001,0 0,0 0,4.14782 0,4.14782 0,0 -23.99997,0 -23.99997,0 0,0 0,53.44671 0,53.44671 0,0 12,0 12,0 0,0 0,-4.11129 0,-4.11129 0,0 -8,0 -8,0 0,0 0,-12.33385 0,-12.33385 0,0 19.99997,0 19.99997,0 0,0 0,24.63117 0,24.63117 0,0 -4.00001,0 -4.00001,0 0,0 0,-20.51988 0,-20.51988 0,0 -11.99996,0 -11.99996,0 0,0 0,4.11128 0,4.11128 0,0 8,0 8,0 0,0 0,12.33385 0,12.33385 0,0 -20,0 -20,0 0,0 0,-61.66927 0,-61.66927 0,0 0,5e-5 0,5e-5 m 0,65.78061 c 0,0 23.99996,0 23.99996,0 0,0 0,-0.0366 0,-0.0366 0,0 4.00001,0 4.00001,0 0,0 0,4.14783 0,4.14783 0,0 -23.99997,0 -23.99997,0 0,0 0,53.4467 0,53.4467 0,0 12,0 12,0 0,0 0,-4.11128 0,-4.11128 0,0 -8,0 -8,0 0,0 0,-12.33386 0,-12.33386 0,0 19.99997,0 19.99997,0 0,0 0,24.63117 0,24.63117 0,0 -4.00001,0 -4.00001,0 0,0 0,-20.51988 0,-20.51988 0,0 -11.99996,0 -11.99996,0 0,0 0,4.11128 0,4.11128 0,0 8,0 8,0 0,0 0,12.33386 0,12.33386 0,0 -20,0 -20,0 0,0 0,-61.66928 0,-61.66928 0,0 0,5e-5 0,5e-5 m 0,65.78061 c 0,0 23.99996,0 23.99996,0 0,0 0,-0.0366 0,-0.0366 0,0 4.00001,0 4.00001,0 0,0 0,4.14783 0,4.14783 0,0 -23.99997,0 -23.99997,0 0,0 0,53.4467 0,53.4467 0,0 12,0 12,0 0,0 0,-4.11128 0,-4.11128 0,0 -8,0 -8,0 0,0 0,-12.33386 0,-12.33386 0,0 19.99997,0 19.99997,0 0,0 0,24.63117 0,24.63117 0,0 -4.00001,0 -4.00001,0 0,0 0,-20.51988 0,-20.51988 0,0 -11.99996,0 -11.99996,0 0,0 0,4.11128 0,4.11128 0,0 8,0 8,0 0,0 0,12.33386 0,12.33386 0,0 -20,0 -20,0 0,0 0,-61.66928 0,-61.66928 0,0 0,5e-5 0,5e-5 m 0,65.78061 c 0,0 23.99996,0 23.99996,0 0,0 0,-0.0366 0,-0.0366 0,0 4.00001,0 4.00001,0 0,0 0,4.14783 0,4.14783 0,0 -23.99997,0 -23.99997,0 0,0 0,53.4467 0,53.4467 0,0 12,0 12,0 0,0 0,-4.11128 0,-4.11128 0,0 -8,0 -8,0 0,0 0,-12.33386 0,-12.33386 0,0 19.99997,0 19.99997,0 0,0 0,24.63117 0,24.63117 0,0 -4.00001,0 -4.00001,0 0,0 0,-20.51988 0,-20.51988 0,0 -11.99996,0 -11.99996,0 0,0 0,4.11128 0,4.11128 0,0 8,0 8,0 0,0 0,12.33386 0,12.33386 0,0 -20,0 -20,0 0,0 0,-61.66928 0,-61.66928 0,0 0,5e-5 0,5e-5 m 0,65.78061 c 0,0 23.99996,0 23.99996,0 0,0 0,-0.0366 0,-0.0366 0,0 4.00001,0 4.00001,0 0,0 0,4.14783 0,4.14783 0,0 -23.99997,0 -23.99997,0 0,0 0,53.4467 0,53.4467 0,0 12,0 12,0 0,0 0,-4.11128 0,-4.11128 0,0 -8,0 -8,0 0,0 0,-12.33386 0,-12.33386 0,0 19.99997,0 19.99997,0 0,0 0,24.63117 0,24.63117 0,0 -4.00001,0 -4.00001,0 0,0 0,-20.51988 0,-20.51988 0,0 -11.99996,0 -11.99996,0 0,0 0,4.11128 0,4.11128 0,0 8,0 8,0 0,0 0,12.33386 0,12.33386 0,0 -20,0 -20,0 0,0 0,-61.66928 0,-61.66928 0,0 0,5e-5 0,5e-5 m 0,65.78062 c 0,0 23.99996,0 23.99996,0 0,0 0,-0.0366 0,-0.0366 0,0 4.00001,0 4.00001,0 0,0 0,4.14783 0,4.14783 0,0 -23.99997,0 -23.99997,0 0,0 0,53.4467 0,53.4467 0,0 12,0 12,0 0,0 0,-4.11128 0,-4.11128 0,0 -8,0 -8,0 0,0 0,-12.33386 0,-12.33386 0,0 19.99997,0 19.99997,0 0,0 0,24.63117 0,24.63117 0,0 -4.00001,0 -4.00001,0 0,0 0,-20.51988 0,-20.51988 0,0 -11.99996,0 -11.99996,0 0,0 0,4.11128 0,4.11128 0,0 8,0 8,0 0,0 0,12.33386 0,12.33386 0,0 -20,0 -20,0 0,0 0,-61.66928 0,-61.66928 0,0 0,6e-5 0,6e-5 m 0,65.78061 c 0,0 23.99996,0 23.99996,0 0,0 0,-0.0366 0,-0.0366 0,0 4.00001,0 4.00001,0 0,0 0,4.14782 0,4.14782 0,0 -23.99997,0 -23.99997,0 0,0 0,53.4467 0,53.4467 0,0 12,0 12,0 0,0 0,-4.11128 0,-4.11128 0,0 -8,0 -8,0 0,0 0,-12.33385 0,-12.33385 0,0 19.99997,0 19.99997,0 0,0 0,24.63116 0,24.63116 0,0 -4.00001,0 -4.00001,0 0,0 0,-20.51988 0,-20.51988 0,0 -11.99996,0 -11.99996,0 0,0 0,4.11128 0,4.11128 0,0 8,0 8,0 0,0 0,12.33386 0,12.33386 0,0 -20,0 -20,0 0,0 0,-61.66928 0,-61.66928 0,0 0,6e-5 0,6e-5 m 0,65.78061 c 0,0 23.99996,0 23.99996,0 0,0 0,-0.0366 0,-0.0366 0,0 4.00001,0 4.00001,0 0,0 0,4.14782 0,4.14782 0,0 -23.99997,0 -23.99997,0 0,0 0,53.44671 0,53.44671 0,0 12,0 12,0 0,0 0,-4.11129 0,-4.11129 0,0 -8,0 -8,0 0,0 0,-12.33385 0,-12.33385 0,0 19.99997,0 19.99997,0 0,0 0,24.63117 0,24.63117 0,0 -4.00001,0 -4.00001,0 0,0 0,-20.51989 0,-20.51989 0,0 -11.99996,0 -11.99996,0 0,0 0,4.11129 0,4.11129 0,0 8,0 8,0 0,0 0,12.33385 0,12.33385 0,0 -20,0 -20,0 0,0 0,-61.66927 0,-61.66927 0,0 0,5e-5 0,5e-5 m 0,65.78061 c 0,0 23.99996,0 23.99996,0 0,0 0,-0.0366 0,-0.0366 0,0 4.00001,0 4.00001,0 0,0 0,4.14782 0,4.14782 0,0 -23.99997,0 -23.99997,0 0,0 0,53.44671 0,53.44671 0,0 12,0 12,0 0,0 0,-4.11129 0,-4.11129 0,0 -8,0 -8,0 0,0 0,-12.33385 0,-12.33385 0,0 19.99997,0 19.99997,0 0,0 0,24.63117 0,24.63117 0,0 -4.00001,0 -4.00001,0 0,0 0,-20.51989 0,-20.51989 0,0 -11.99996,0 -11.99996,0 0,0 0,4.11129 0,4.11129 0,0 8,0 8,0 0,0 0,12.33385 0,12.33385 0,0 -20,0 -20,0 0,0 0,-61.66927 0,-61.66927 0,0 0,5e-5 0,5e-5 m 0,65.78061 c 0,0 23.99996,0 23.99996,0 0,0 0,-0.0366 0,-0.0366 0,0 4.00001,0 4.00001,0 0,0 0,4.14782 0,4.14782 0,0 -23.99997,0 -23.99997,0 0,0 0,53.44671 0,53.44671 0,0 12,0 12,0 0,0 0,-4.11129 0,-4.11129 0,0 -8,0 -8,0 0,0 0,-12.33385 0,-12.33385 0,0 19.99997,0 19.99997,0 0,0 0,24.63117 0,24.63117 0,0 -4.00001,0 -4.00001,0 0,0 0,-20.51989 0,-20.51989 0,0 -11.99996,0 -11.99996,0 0,0 0,4.11129 0,4.11129 0,0 8,0 8,0 0,0 0,12.33385 0,12.33385 0,0 -20,0 -20,0 0,0 0,-61.66927 0,-61.66927 0,0 0,5e-5 0,5e-5 m 0,65.78061 c 0,0 23.99996,0 23.99996,0 0,0 0,-0.0366 0,-0.0366 0,0 4.00001,0 4.00001,0 0,0 0,4.14782 0,4.14782 0,0 -23.99997,0 -23.99997,0 0,0 0,53.44671 0,53.44671 0,0 12,0 12,0 0,0 0,-4.11129 0,-4.11129 0,0 -8,0 -8,0 0,0 0,-12.33385 0,-12.33385 0,0 19.99997,0 19.99997,0 0,0 0,24.63117 0,24.63117 0,0 -4.00001,0 -4.00001,0 0,0 0,-20.51989 0,-20.51989 0,0 -11.99996,0 -11.99996,0 0,0 0,4.11129 0,4.11129 0,0 8,0 8,0 0,0 0,12.33385 0,12.33385 0,0 -20,0 -20,0 0,0 0,-61.66927 0,-61.66927 0,0 0,5e-5 0,5e-5 m 0,65.78061 c 0,0 23.99996,0 23.99996,0 0,0 0,-0.0366 0,-0.0366 0,0 4.00001,0 4.00001,0 0,0 0,4.14782 0,4.14782 0,0 -23.99997,0 -23.99997,0 0,0 0,53.44671 0,53.44671 0,0 12,0 12,0 0,0 0,-4.11129 0,-4.11129 0,0 -8,0 -8,0 0,0 0,-12.33385 0,-12.33385 0,0 19.99997,0 19.99997,0 0,0 0,24.63114 0,24.63114 0,0 -4.00001,0 -4.00001,0 0,0 0,-20.51986 0,-20.51986 0,0 -11.99996,0 -11.99996,0 0,0 0,4.11129 0,4.11129 0,0 8,0 8,0 0,0 0,12.33385 0,12.33385 0,0 -20,0 -20,0 0,0 0,-61.66927 0,-61.66927 0,0 0,5e-5 0,5e-5 m 8,-781.14476 c 0,0 23.99997,0 23.99997,0 0,0 0,-8.25911 0,-8.25911 0,0 4,0 4,0 0,0 0,12.37039 0,12.37039 0,0 -23.99997,0 -23.99997,0 0,0 0,20.55643 0,20.55643 0,0 11.99996,0 11.99996,0 0,0 0,-4.11129 0,-4.11129 0,0 -7.99996,0 -7.99996,0 0,0 0,-12.33385 0,-12.33385 0,0 19.99997,0 19.99997,0 0,0 0,49.29888 0,49.29888 0,0 -4,0 -4,0 0,0 0,-45.1876 0,-45.1876 0,0 -11.99997,0 -11.99997,0 0,0 0,4.11129 0,4.11129 0,0 7.99997,0 7.99997,0 0,0 0,12.33385 0,12.33385 0,0 -19.99997,0 -19.99997,0 0,0 0,-28.77899 0,-28.77899 0,0 0,0 0,0 m 0,65.78061 c 0,0 23.99997,0 23.99997,0 0,0 0,-8.25911 0,-8.25911 0,0 4,0 4,0 0,0 0,12.3704 0,12.3704 0,0 -23.99997,0 -23.99997,0 0,0 0,20.55642 0,20.55642 0,0 11.99996,0 11.99996,0 0,0 0,-4.11129 0,-4.11129 0,0 -7.99996,0 -7.99996,0 0,0 0,-12.33385 0,-12.33385 0,0 19.99997,0 19.99997,0 0,0 0,49.29888 0,49.29888 0,0 -4,0 -4,0 0,0 0,-45.18759 0,-45.18759 0,0 -11.99997,0 -11.99997,0 0,0 0,4.11128 0,4.11128 0,0 7.99997,0 7.99997,0 0,0 0,12.33385 0,12.33385 0,0 -19.99997,0 -19.99997,0 0,0 0,-28.77899 0,-28.77899 0,0 0,0 0,0 m 0,65.78061 c 0,0 23.99997,0 23.99997,0 0,0 0,-8.25911 0,-8.25911 0,0 4,0 4,0 0,0 0,12.3704 0,12.3704 0,0 -23.99997,0 -23.99997,0 0,0 0,20.55642 0,20.55642 0,0 11.99996,0 11.99996,0 0,0 0,-4.11128 0,-4.11128 0,0 -7.99996,0 -7.99996,0 0,0 0,-12.33386 0,-12.33386 0,0 19.99997,0 19.99997,0 0,0 0,49.29888 0,49.29888 0,0 -4,0 -4,0 0,0 0,-45.18759 0,-45.18759 0,0 -11.99997,0 -11.99997,0 0,0 0,4.11128 0,4.11128 0,0 7.99997,0 7.99997,0 0,0 0,12.33385 0,12.33385 0,0 -19.99997,0 -19.99997,0 0,0 0,-28.77899 0,-28.77899 0,0 0,0 0,0 m 0,65.78061 c 0,0 23.99997,0 23.99997,0 0,0 0,-8.25911 0,-8.25911 0,0 4,0 4,0 0,0 0,12.3704 0,12.3704 0,0 -23.99997,0 -23.99997,0 0,0 0,20.55642 0,20.55642 0,0 11.99996,0 11.99996,0 0,0 0,-4.11128 0,-4.11128 0,0 -7.99996,0 -7.99996,0 0,0 0,-12.33386 0,-12.33386 0,0 19.99997,0 19.99997,0 0,0 0,49.29888 0,49.29888 0,0 -4,0 -4,0 0,0 0,-45.18759 0,-45.18759 0,0 -11.99997,0 -11.99997,0 0,0 0,4.11128 0,4.11128 0,0 7.99997,0 7.99997,0 0,0 0,12.33386 0,12.33386 0,0 -19.99997,0 -19.99997,0 0,0 0,-28.779 0,-28.779 0,0 0,0 0,0 m 0,65.78061 c 0,0 23.99997,0 23.99997,0 0,0 0,-8.25911 0,-8.25911 0,0 4,0 4,0 0,0 0,12.3704 0,12.3704 0,0 -23.99997,0 -23.99997,0 0,0 0,20.55642 0,20.55642 0,0 11.99996,0 11.99996,0 0,0 0,-4.11128 0,-4.11128 0,0 -7.99996,0 -7.99996,0 0,0 0,-12.33386 0,-12.33386 0,0 19.99997,0 19.99997,0 0,0 0,49.29888 0,49.29888 0,0 -4,0 -4,0 0,0 0,-45.18759 0,-45.18759 0,0 -11.99997,0 -11.99997,0 0,0 0,4.11128 0,4.11128 0,0 7.99997,0 7.99997,0 0,0 0,12.33386 0,12.33386 0,0 -19.99997,0 -19.99997,0 0,0 0,-28.779 0,-28.779 0,0 0,0 0,0 m 0,65.78061 c 0,0 23.99997,0 23.99997,0 0,0 0,-8.2591 0,-8.2591 0,0 4,0 4,0 0,0 0,12.37039 0,12.37039 0,0 -23.99997,0 -23.99997,0 0,0 0,20.55642 0,20.55642 0,0 11.99996,0 11.99996,0 0,0 0,-4.11128 0,-4.11128 0,0 -7.99996,0 -7.99996,0 0,0 0,-12.33386 0,-12.33386 0,0 19.99997,0 19.99997,0 0,0 0,49.29888 0,49.29888 0,0 -4,0 -4,0 0,0 0,-45.18759 0,-45.18759 0,0 -11.99997,0 -11.99997,0 0,0 0,4.11128 0,4.11128 0,0 7.99997,0 7.99997,0 0,0 0,12.33386 0,12.33386 0,0 -19.99997,0 -19.99997,0 0,0 0,-28.779 0,-28.779 0,0 0,0 0,0 m 0,65.78061 c 0,0 23.99997,0 23.99997,0 0,0 0,-8.2591 0,-8.2591 0,0 4,0 4,0 0,0 0,12.37039 0,12.37039 0,0 -23.99997,0 -23.99997,0 0,0 0,20.55642 0,20.55642 0,0 11.99996,0 11.99996,0 0,0 0,-4.11128 0,-4.11128 0,0 -7.99996,0 -7.99996,0 0,0 0,-12.33386 0,-12.33386 0,0 19.99997,0 19.99997,0 0,0 0,49.29889 0,49.29889 0,0 -4,0 -4,0 0,0 0,-45.1876 0,-45.1876 0,0 -11.99997,0 -11.99997,0 0,0 0,4.11128 0,4.11128 0,0 7.99997,0 7.99997,0 0,0 0,12.33386 0,12.33386 0,0 -19.99997,0 -19.99997,0 0,0 0,-28.779 0,-28.779 0,0 0,0 0,0 m 0,65.78062 c 0,0 23.99997,0 23.99997,0 0,0 0,-8.25911 0,-8.25911 0,0 4,0 4,0 0,0 0,12.37039 0,12.37039 0,0 -23.99997,0 -23.99997,0 0,0 0,20.55642 0,20.55642 0,0 11.99996,0 11.99996,0 0,0 0,-4.11128 0,-4.11128 0,0 -7.99996,0 -7.99996,0 0,0 0,-12.33386 0,-12.33386 0,0 19.99997,0 19.99997,0 0,0 0,49.29889 0,49.29889 0,0 -4,0 -4,0 0,0 0,-45.1876 0,-45.1876 0,0 -11.99997,0 -11.99997,0 0,0 0,4.11128 0,4.11128 0,0 7.99997,0 7.99997,0 0,0 0,12.33386 0,12.33386 0,0 -19.99997,0 -19.99997,0 0,0 0,-28.77899 0,-28.77899 0,0 0,0 0,0 m 0,65.78061 c 0,0 23.99997,0 23.99997,0 0,0 0,-8.25911 0,-8.25911 0,0 4,0 4,0 0,0 0,12.37039 0,12.37039 0,0 -23.99997,0 -23.99997,0 0,0 0,20.55642 0,20.55642 0,0 11.99996,0 11.99996,0 0,0 0,-4.11128 0,-4.11128 0,0 -7.99996,0 -7.99996,0 0,0 0,-12.33385 0,-12.33385 0,0 19.99997,0 19.99997,0 0,0 0,49.29888 0,49.29888 0,0 -4,0 -4,0 0,0 0,-45.1876 0,-45.1876 0,0 -11.99997,0 -11.99997,0 0,0 0,4.11129 0,4.11129 0,0 7.99997,0 7.99997,0 0,0 0,12.33385 0,12.33385 0,0 -19.99997,0 -19.99997,0 0,0 0,-28.77899 0,-28.77899 0,0 0,0 0,0 m 0,65.78061 c 0,0 23.99997,0 23.99997,0 0,0 0,-8.25911 0,-8.25911 0,0 4,0 4,0 0,0 0,12.37039 0,12.37039 0,0 -23.99997,0 -23.99997,0 0,0 0,20.55643 0,20.55643 0,0 11.99996,0 11.99996,0 0,0 0,-4.11129 0,-4.11129 0,0 -7.99996,0 -7.99996,0 0,0 0,-12.33385 0,-12.33385 0,0 19.99997,0 19.99997,0 0,0 0,49.29888 0,49.29888 0,0 -4,0 -4,0 0,0 0,-45.1876 0,-45.1876 0,0 -11.99997,0 -11.99997,0 0,0 0,4.11129 0,4.11129 0,0 7.99997,0 7.99997,0 0,0 0,12.33385 0,12.33385 0,0 -19.99997,0 -19.99997,0 0,0 0,-28.77899 0,-28.77899 0,0 0,0 0,0 m 0,65.78061 c 0,0 23.99997,0 23.99997,0 0,0 0,-8.25911 0,-8.25911 0,0 4,0 4,0 0,0 0,12.37039 0,12.37039 0,0 -23.99997,0 -23.99997,0 0,0 0,20.55643 0,20.55643 0,0 11.99996,0 11.99996,0 0,0 0,-4.11129 0,-4.11129 0,0 -7.99996,0 -7.99996,0 0,0 0,-12.33385 0,-12.33385 0,0 19.99997,0 19.99997,0 0,0 0,49.29888 0,49.29888 0,0 -4,0 -4,0 0,0 0,-45.1876 0,-45.1876 0,0 -11.99997,0 -11.99997,0 0,0 0,4.11129 0,4.11129 0,0 7.99997,0 7.99997,0 0,0 0,12.33385 0,12.33385 0,0 -19.99997,0 -19.99997,0 0,0 0,-28.77899 0,-28.77899 0,0 0,0 0,0 m 0,65.78061 c 0,0 23.99997,0 23.99997,0 0,0 0,-8.25911 0,-8.25911 0,0 4,0 4,0 0,0 0,12.37039 0,12.37039 0,0 -23.99997,0 -23.99997,0 0,0 0,20.55643 0,20.55643 0,0 11.99996,0 11.99996,0 0,0 0,-4.11129 0,-4.11129 0,0 -7.99996,0 -7.99996,0 0,0 0,-12.33385 0,-12.33385 0,0 19.99997,0 19.99997,0 0,0 0,49.29888 0,49.29888 0,0 -4,0 -4,0 0,0 0,-45.1876 0,-45.1876 0,0 -11.99997,0 -11.99997,0 0,0 0,4.11129 0,4.11129 0,0 7.99997,0 7.99997,0 0,0 0,12.33385 0,12.33385 0,0 -19.99997,0 -19.99997,0 0,0 0,-28.77899 0,-28.77899 0,0 0,0 0,0 m 0,65.78061 c 0,0 23.99997,0 23.99997,0 0,0 0,-8.25911 0,-8.25911 0,0 4,0 4,0 0,0 0,12.37039 0,12.37039 0,0 -23.99997,0 -23.99997,0 0,0 0,20.55643 0,20.55643 0,0 11.99996,0 11.99996,0 0,0 0,-4.11129 0,-4.11129 0,0 -7.99996,0 -7.99996,0 0,0 0,-12.33385 0,-12.33385 0,0 19.99997,0 19.99997,0 0,0 0,49.2989 0,49.2989 0,0 -4,0 -4,0 0,0 0,-45.18762 0,-45.18762 0,0 -11.99997,0 -11.99997,0 0,0 0,4.11129 0,4.11129 0,0 7.99997,0 7.99997,0 0,0 0,12.33385 0,12.33385 0,0 -19.99997,0 -19.99997,0 0,0 0,-28.77899 0,-28.77899 0,0 0,0 0,0"
           style="opacity:1;fill:#000000;fill-opacity:1;fill-rule:evenodd;stroke:none;stroke-width:1px;stroke-linecap:butt;stroke-linejoin:miter;stroke-opacity:1" />
        <use
           height="100%"
           width="100%"
           transform="matrix(-1,0,0,-1,776.81777,1093.0325)"
           id="use4874"
           xlink:href="#path9057"
           y="0"
           x="0" />
      </g>
    </g>
  </g>
</svg>
